
<svg xmlns="http://www.w3.org/2000/svg" viewBox="0 0 24 24" fill="none">
  <rect width="24" height="24" rx="6" fill="#111111" />
  <path d="M9.5 6.5H11.5V15.5C10.9477 15.5 10.4008 15.7634 10 16.2322C9.59918 16.7011 9.33333 17.3333 9.33333 18C9.33333 18.3333 9.38889 18.6481 9.5 18.9259C8.27778 18.537 7.22222 17.8889 6.33333 17C5.44444 16.0741 5 14.4815 5 12.2222V9.9259C5 8.57407 5.30864 7.44444 5.92593 6.53704C6.54321 5.62963 7.4321 5 8.59259 4.62963C8.89506 4.54321 9.19753 4.45679 9.5 4.37037V6.5Z" fill="#44B78B" />
  <path d="M14.5 6.5H12.5V15.5C13.0523 15.5 13.5992 15.7634 14 16.2322C14.4008 16.7011 14.6667 17.3333 14.6667 18C14.6667 18.3333 14.6111 18.6481 14.5 18.9259C15.7222 18.537 16.7778 17.8889 17.6667 17C18.5556 16.0741 19 14.4815 19 12.2222V9.9259C19 8.57407 18.6914 7.44444 18.0741 6.53704C17.4568 5.62963 16.5679 5 15.4074 4.62963C15.1049 4.54321 14.8025 4.45679 14.5 4.37037V6.5Z" fill="#44B78B" />
  <path d="M9.5 6.5H14.5" stroke="#44B78B" stroke-width="2" />
</svg>
