
<svg xmlns="http://www.w3.org/2000/svg" viewBox="0 0 24 24" fill="none">
  <rect width="24" height="24" rx="6" fill="#111111" />
  <path d="M6 6H18V18H6V6Z" fill="#F7DF1E" />
  <path d="M14.25 14.1499C14.6642 14.8646 15.2338 15.2552 16.0392 15.2552C16.7134 15.2552 17.1903 14.9293 17.1903 14.4578C17.1903 13.8896 16.7326 13.6699 16.0009 13.3153L15.6278 13.1341C14.4968 12.5945 13.733 11.9122 13.733 10.6172C13.733 9.42598 14.6455 8.50049 15.9886 8.50049C16.9394 8.50049 17.6328 8.81598 18.1429 9.66348L17.0119 10.3959C16.6934 9.79153 16.3557 9.57176 15.9886 9.57176C15.6086 9.57176 15.3711 9.80918 15.3711 10.3959C15.3711 10.8482 15.6086 11.0679 16.294 11.3939L16.6669 11.5753C17.9909 12.2132 18.7547 12.8765 18.7547 14.2004C18.7547 15.6204 17.636 16.3327 16.0775 16.3327C14.5572 16.3327 13.5681 15.6972 13.1104 14.8497L14.25 14.1499ZM9.61259 14.2582C9.92278 14.804 10.214 15.2745 10.8499 15.2745C11.4664 15.2745 11.8488 15.0355 11.8488 14.1217V8.64099H13.5051V14.1408C13.5051 15.8931 12.5544 16.3262 10.8883 16.3262C9.35855 16.3262 8.61584 15.5948 8.25 14.7089L9.61259 14.2582Z" fill="#111111" />
</svg>
