
<svg xmlns="http://www.w3.org/2000/svg" viewBox="0 0 24 24" fill="none">
  <rect width="24" height="24" rx="6" fill="#111111" />
  <path d="M12.0001 19C11.9521 19 11.904 18.984 11.8621 18.953C11.8621 18.953 11.7261 18.876 11.5741 18.705C11.4341 18.544 11.2521 18.302 11.0821 17.979C10.9121 17.657 10.7421 17.265 10.6041 16.803C10.4341 16.209 10.3621 15.583 10.3621 14.894V9.27C10.3621 9.27 10.9121 9.143 11.1601 8.613C11.2041 8.517 11.2401 8.366 11.2701 8.143C11.3001 7.952 11.3001 7.73 11.3001 7.5H12.0001V19Z" fill="#00ED64"/>
  <path d="M12.0001 19V7.5C13.3621 7.5 14.3621 8.874 14.3621 9.27V14.894C14.3621 17.834 12.4741 18.874 12.0001 19Z" fill="#00ED64"/>
</svg>
