
<svg xmlns="http://www.w3.org/2000/svg" viewBox="0 0 24 24" fill="none">
  <path d="M18.2426 18.3914C18.1235 18.5104 17.967 18.5905 17.7959 18.6174C17.6248 18.6444 17.4487 18.6168 17.2975 18.5395L10.5912 14.7934V19.028C10.5912 19.2021 10.5217 19.369 10.3979 19.4927C10.2742 19.6164 10.1074 19.686 9.93317 19.686H9.30563C9.13144 19.686 8.96463 19.6164 8.84089 19.4927C8.71715 19.369 8.64759 19.2021 8.64759 19.028V9.26139C8.64759 9.08719 8.71715 8.92038 8.84089 8.79664C8.96463 8.6729 9.13144 8.60334 9.30563 8.60334H9.93317C10.1074 8.60334 10.2742 8.6729 10.3979 8.79664C10.5217 8.92038 10.5912 9.08719 10.5912 9.26139V13.4777L17.2975 9.75205C17.4487 9.67472 17.6248 9.64717 17.7959 9.67413C17.967 9.70109 18.1235 9.7812 18.2426 9.90016C18.3616 10.0191 18.4417 10.1756 18.4686 10.3467C18.4956 10.5178 18.468 10.6939 18.3907 10.8451V10.8451L13.4832 14.1498L18.3907 17.4546C18.468 17.6058 18.4956 17.7819 18.4686 17.953C18.4417 18.124 18.3616 18.2806 18.2426 18.3995V18.3914Z" fill="white" />
  <path d="M7.49427 8.61158H6.86673C6.69254 8.61158 6.52572 8.68114 6.40198 8.80488C6.27824 8.92862 6.20868 9.09544 6.20868 9.26963V19.0363C6.20868 19.2104 6.27824 19.3773 6.40198 19.501C6.52572 19.6248 6.69254 19.6943 6.86673 19.6943H7.49427C7.66847 19.6943 7.83528 19.6248 7.95902 19.501C8.08276 19.3773 8.15232 19.2104 8.15232 19.0363V9.26963C8.15232 9.09544 8.08276 8.92862 7.95902 8.80488C7.83528 8.68114 7.66847 8.61158 7.49427 8.61158Z" fill="white" />
</svg>
