
<svg xmlns="http://www.w3.org/2000/svg" viewBox="0 0 24 24" fill="none">
  <rect width="24" height="24" rx="6" fill="#111111" />
  <path d="M12 4.92611L19.2169 9.12556V15.124L12 19.3235L4.78308 15.124V9.12556L12 4.92611Z" fill="#43853D" />
  <path d="M16.6964 8.85878C16.6082 8.8087 16.5034 8.80625 16.413 8.84936L12.1926 11.1322C12.0831 11.1884 12.0139 11.2962 12.0131 11.4134V16.504C12.0131 16.621 12.0818 16.7286 12.1908 16.7853L13.5022 17.5185C13.6771 17.6132 13.8039 17.6154 13.8998 17.5537C13.9949 17.492 14.0482 17.3774 14.0482 17.2222V12.1732C14.0482 12.1607 14.0453 12.1486 14.0397 12.1378C14.0341 12.127 14.026 12.118 14.0161 12.1114L13.6449 11.9011C13.635 11.8946 13.6237 11.8913 13.6121 11.8913C13.6004 11.8913 13.5891 11.8946 13.5792 11.9011L13.208 12.1114C13.1981 12.118 13.19 12.127 13.1844 12.1378C13.1789 12.1486 13.176 12.1607 13.176 12.1732V17.2222C13.176 17.2346 13.179 17.2467 13.1846 17.2574C13.1902 17.2681 13.1984 17.277 13.2083 17.2834L13.9574 17.7033C14.0009 17.7283 14.054 17.7283 14.0975 17.7033L14.8466 17.2834C14.8565 17.277 14.8647 17.2681 14.8703 17.2574C14.8759 17.2467 14.8788 17.2346 14.8788 17.2222V16.5273C14.8788 16.5148 14.8818 16.5027 14.8874 16.492C14.893 16.4812 14.9011 16.4723 14.911 16.4657L15.5301 16.0985C15.54 16.0921 15.5482 16.0831 15.5538 16.0724C15.5593 16.0617 15.5623 16.0495 15.5623 16.037V11.4134C15.5623 11.2962 15.4931 11.1884 15.3836 11.1322L13.9371 10.319C13.9035 10.3 13.8631 10.2901 13.8221 10.291V10.2891C13.7851 10.2891 13.7491 10.2977 13.718 10.314L11.1796 11.7423C11.07 11.7993 11 11.9079 11 12.0259V16.504C11 16.6202 11.0685 16.7278 11.1766 16.7849L14.2991 18.4971C14.3998 18.5537 14.5201 18.5541 14.621 18.4971L17.7698 16.7853C17.8789 16.7286 17.9479 16.621 17.9479 16.504V8.87143C17.9479 8.75335 17.879 8.64533 17.7695 8.5887L16.6964 8.85878Z" fill="white" />
  <path d="M10.3885 12.7573C10.3885 12.7448 10.3856 12.7326 10.38 12.7219C10.3744 12.7111 10.3662 12.7022 10.3563 12.6957L9.99308 12.4763C9.98316 12.4699 9.97187 12.4665 9.9602 12.4665C9.94852 12.4665 9.93723 12.4699 9.9273 12.4763L9.56409 12.6957C9.55419 12.7022 9.54603 12.7111 9.54043 12.7219C9.53484 12.7326 9.5319 12.7448 9.5319 12.7573V13.1952C9.5319 13.2077 9.53484 13.2199 9.54043 13.2307C9.54603 13.2414 9.55419 13.2504 9.56409 13.2568L9.9273 13.476C9.93723 13.4825 9.94852 13.4858 9.9602 13.4858C9.97187 13.4858 9.98316 13.4825 9.99308 13.476L10.3563 13.2568C10.3662 13.2504 10.3744 13.2414 10.38 13.2307C10.3856 13.2199 10.3885 13.2077 10.3885 13.1952V12.7573Z" fill="white" />
  <path d="M10.6232 10.3142C10.578 10.2954 10.5298 10.2838 10.4811 10.2798V10.2794C10.4552 10.2794 10.4283 10.2835 10.4027 10.291C10.3705 10.3006 10.341 10.3159 10.3158 10.3359L8.51061 11.3052C8.45517 11.3343 8.41931 11.3881 8.41641 11.4491V13.3822C8.41631 13.4131 8.42615 13.4432 8.44495 13.4684C8.46375 13.4935 8.49072 13.5126 8.52226 13.5231C8.55379 13.5337 8.58828 13.5353 8.62075 13.5277C8.65322 13.52 8.68202 13.5036 8.70324 13.4804L9.16204 13.0651C9.1993 13.0274 9.22098 12.9781 9.22376 12.926V11.6472C9.22292 11.5885 9.25205 11.5329 9.30227 11.5002L10.4019 10.8402C10.44 10.8168 10.4866 10.8069 10.5321 10.8128C10.5776 10.8187 10.6186 10.8399 10.6471 10.8722C10.6603 10.8871 10.6703 10.9044 10.6763 10.9233C10.6823 10.9421 10.6844 10.962 10.6823 10.9817V12.2245C10.6821 12.2432 10.6858 12.2616 10.6931 12.2783C10.7005 12.2949 10.7114 12.3095 10.725 12.3208C10.7387 12.3322 10.7547 12.3401 10.7719 12.3438C10.7891 12.3476 10.8072 12.3471 10.8243 12.3425L11.2588 12.2143C11.2918 12.2057 11.3212 12.1871 11.3429 12.1611C11.3646 12.1351 11.3776 12.1031 11.3801 12.069V10.7865C11.3791 10.7453 11.3661 10.7053 11.3425 10.6712C11.3188 10.637 11.2857 10.6103 11.2471 10.5941C11.1146 10.5444 10.8709 10.4186 10.6232 10.3142Z" fill="white" />
</svg>
