
<svg xmlns="http://www.w3.org/2000/svg" viewBox="0 0 24 24" fill="none">
  <rect width="24" height="24" rx="6" fill="#111111" />
  <path d="M16.422 16.985C16.1269 16.83 15.9552 16.6372 15.8916 16.4126C15.8638 16.3051 15.8638 16.1849 15.9074 16.0775C15.9177 16.0393 15.931 16.0048 15.947 15.9743C16.0855 15.5672 16.3105 15.2171 16.5953 14.9408C16.7069 14.8128 16.8284 14.6972 16.9545 14.5751C16.9878 14.5418 17.0299 14.518 17.0763 14.5063C17.1227 14.4946 17.1716 14.4954 17.2176 14.5085C17.2637 14.5216 17.3052 14.5468 17.3376 14.581C17.3701 14.6153 17.3925 14.6575 17.4026 14.7033C17.4529 14.8976 17.3977 15.0447 17.237 15.1447C17.1423 15.2063 17.0421 15.2601 16.9374 15.3054C16.7462 15.3949 16.5795 15.5407 16.4516 15.7281C16.3907 15.8442 16.3671 15.9762 16.3833 16.1063C16.3923 16.1914 16.4305 16.2702 16.4915 16.3288C16.599 16.4214 16.7348 16.467 16.8741 16.4594C17.0506 16.4505 17.2237 16.4079 17.3851 16.3339C17.687 16.1962 17.9396 15.9839 18.1167 15.7206C18.3095 15.4645 18.4055 15.1508 18.3903 14.8321C18.3852 14.6361 18.3263 14.4473 18.2222 14.2902C18.1181 14.1331 17.9742 14.0152 17.8101 13.9532C17.5777 13.8743 17.3233 13.8743 17.0909 13.9532C16.9899 13.9907 16.893 14.0383 16.8018 14.0951C16.5065 14.2589 16.2514 14.4915 16.0536 14.7756C15.8499 15.0772 15.7215 15.4261 15.6792 15.7892C15.6663 15.914 15.6663 16.0399 15.6792 16.1647C15.6861 16.3762 15.758 16.5805 15.884 16.7472C16.01 16.9138 16.1833 17.034 16.3795 17.0897C16.5621 17.1471 16.7529 17.177 16.9444 17.1782C17.1623 17.1778 17.3797 17.1639 17.5952 17.1368C18.6449 16.9676 19.5501 16.2784 19.9601 15.3143C20.037 15.1318 20.0974 14.9437 20.1408 14.7518C20.2593 14.241 20.337 13.7152 20.3734 13.1852C20.4144 12.5035 20.3854 11.8174 20.2862 11.144C20.1747 10.4901 20.0144 9.84381 19.8064 9.21138C19.7258 8.96064 19.6228 8.71672 19.499 8.48177C19.2055 7.8901 18.8307 7.35169 18.3903 6.88995C17.8325 6.30531 17.1627 5.84338 16.4218 5.5324C15.5591 5.18951 14.6448 4.98961 13.7277 4.94301C13.3478 4.91682 12.9669 4.92106 12.5881 4.9557C11.8287 5.02615 11.0901 5.23442 10.4173 5.56656C9.87538 5.83341 9.37383 6.1782 8.93127 6.59024C8.47177 7.01839 8.09314 7.53104 7.81463 8.10036C7.52528 8.68097 7.35114 9.31534 7.30404 9.96752C7.2428 10.7496 7.36933 11.5334 7.67233 12.2547C7.96547 12.9423 8.42289 13.5556 8.99842 14.0507C9.66697 14.6098 10.4704 14.9863 11.3319 15.1447C12.1076 15.2986 12.9011 15.3659 13.6955 15.3454C13.8432 15.3454 13.987 15.3344 14.1308 15.3055C14.2053 15.2913 14.2774 15.2661 14.3445 15.2306C14.4116 15.195 14.4728 15.1497 14.5255 15.0961C14.6812 14.9083 14.7454 14.7023 14.7129 14.498C14.6923 14.3352 14.6052 14.189 14.4723 14.0951C14.3712 14.0182 14.2392 13.9883 14.1149 14.0129C13.9366 14.0403 13.7557 14.0522 13.5744 14.0484C13.2099 14.0362 12.8459 14.0092 12.4837 13.9678C12.017 13.9213 11.5577 13.8338 11.1116 13.7064C10.6943 13.5765 10.2995 13.3938 9.93975 13.1647C9.59281 12.9546 9.28347 12.6881 9.02548 12.38C8.77484 12.0744 8.57681 11.7278 8.43967 11.3563C8.26514 10.8804 8.18876 10.3778 8.1143 9.87139C8.05709 9.4761 8.05683 9.07438 8.1135 8.67904C8.21929 7.90278 8.5034 7.17093 8.94524 6.54496C9.41784 5.85638 10.0526 5.3001 10.785 4.93372C11.7594 4.45096 12.8208 4.193 13.8955 4.17945C14.5182 4.17618 15.1372 4.26906 15.7284 4.45413C16.3121 4.64295 16.8643 4.92223 17.3647 5.28239C17.8805 5.65472 18.325 6.12513 18.6743 6.66976C18.99 7.16442 19.2113 7.71803 19.3262 8.29909C19.4443 8.84496 19.512 9.40096 19.5283 9.96092C19.5493 10.5113 19.5225 11.0631 19.4479 11.607C19.37 12.1212 19.2467 12.6319 19.0911 13.1303C18.9491 13.5982 18.7711 14.0532 18.5589 14.4902C18.4991 14.6091 18.4302 14.7227 18.3526 14.8321C18.1699 15.0978 17.9359 15.3256 17.6652 15.5039C17.519 15.5954 17.3583 15.6638 17.1887 15.7056C17.0239 15.7476 16.8932 15.7069 16.7974 15.5834C16.7014 15.4602 16.6627 15.3253 16.6813 15.1786C16.7059 15.0001 16.7764 14.8323 16.8832 14.6902C16.9773 14.5659 17.078 14.4481 17.1853 14.3372C17.2656 14.253 17.3471 14.1706 17.425 14.0856C17.4728 14.043 17.5107 13.9918 17.5367 13.9349C17.5627 13.878 17.5763 13.8163 17.5768 13.754C17.5749 13.6879 17.5572 13.6233 17.5252 13.5661C17.4932 13.509 17.448 13.4609 17.3937 13.4265C17.3233 13.3813 17.2413 13.3582 17.1581 13.3602C17.0331 13.3626 16.9103 13.3988 16.8018 13.4649C16.6235 13.566 16.4657 13.7004 16.3372 13.8615C16.1618 14.0767 16.0335 14.326 15.9597 14.5939C15.8793 14.8574 15.861 15.1359 15.9059 15.4077C15.9233 15.4951 15.9481 15.5802 15.9803 15.6621C15.9306 15.7472 15.8971 15.8408 15.8812 15.9383C15.8673 16.028 15.8673 16.1194 15.8812 16.2091C15.9347 16.5429 16.1022 16.8418 16.3565 17.047C16.5845 17.2387 16.8641 17.3585 17.1622 17.3903C17.3025 17.4067 17.4453 17.4066 17.5856 17.3903C18.1182 17.3272 18.6278 17.1522 19.0791 16.8773C19.4837 16.6346 19.8418 16.3288 20.1408 15.9744C20.3289 15.7314 20.4874 15.4675 20.6129 15.1882C20.8299 14.6857 20.9518 14.1444 20.9731 13.5941C21.0074 12.9617 20.9874 12.3267 20.9139 11.698C20.8068 10.8196 20.6032 9.95524 20.3068 9.12197C20.1236 8.61401 19.8757 8.13532 19.5693 7.69849C19.1659 7.1348 18.6776 6.63957 18.1236 6.22865C17.5068 5.78592 16.816 5.44356 16.0817 5.22122C15.3861 5.01011 14.6642 4.8989 13.9464 4.88824C13.1914 4.87901 12.4402 4.99148 11.722 5.21975C11.0778 5.42428 10.4739 5.73289 9.9327 6.13264C9.12533 6.7297 8.44255 7.47093 7.93508 8.31643C7.7171 8.67941 7.54437 9.06923 7.42137 9.47731C7.2478 10.0661 7.16385 10.678 7.17116 11.2925C7.17614 11.8906 7.29619 12.4815 7.52428 13.0367C7.73635 13.5553 8.04289 14.0302 8.42968 14.4376C8.78593 14.8247 9.20942 15.1402 9.67948 15.3692C10.2076 15.6245 10.7694 15.8042 11.3478 15.9014C12.0062 16.0115 12.6711 16.0657 13.3375 16.0672C14.1465 16.0608 14.9476 15.9402 15.7121 15.71C15.9233 15.6432 16.1238 15.5496 16.3091 15.4317C16.3691 15.6898 16.5063 15.9213 16.6994 16.0988C16.8524 16.2279 17.0306 16.3211 17.2209 16.372C17.3936 16.4196 17.5713 16.4414 17.7492 16.436C17.9845 16.4264 18.2185 16.3975 18.4492 16.3499C18.9552 16.2448 19.4345 16.0501 19.8608 15.7774C19.9675 15.7136 20.066 15.6363 20.1538 15.5482C20.2033 15.6856 20.2602 15.8201 20.3245 15.9513C20.3997 16.0792 20.4743 16.125 20.5488 16.0854C20.6232 16.0458 20.6419 15.9697 20.604 15.8584C20.5451 15.6931 20.4864 15.5281 20.427 15.3692C20.5773 15.2374 20.7019 15.0802 20.7956 14.9048C21.0984 14.3428 21.2868 13.7232 21.3499 13.0849C21.4404 12.0957 21.2765 11.0975 20.8725 10.1879C20.7537 9.92126 20.6234 9.66141 20.4823 9.40936C20.4259 9.31604 20.3434 9.23905 20.2445 9.18659C20.1456 9.13413 20.0339 9.10841 19.9204 9.1122C19.83 9.11631 19.7427 9.14514 19.6671 9.19561C19.5916 9.24608 19.5307 9.31641 19.4902 9.39956C19.3219 9.76218 19.4083 10.0224 19.7493 10.1799C19.8593 10.2234 19.9542 10.299 20.0222 10.396C20.0903 10.4931 20.1289 10.6075 20.1337 10.7253C20.1447 10.8932 20.1447 11.0619 20.1337 11.2298C20.1032 11.6043 20.0503 11.9761 19.9761 12.3427C19.8918 12.8068 19.7685 13.2624 19.6079 13.7039C19.5156 13.953 19.4028 14.1959 19.2704 14.43C19.0156 14.8851 18.6243 15.2426 18.1493 15.4474C17.9693 15.5224 17.7806 15.5778 17.5869 15.612C17.4755 15.6308 17.362 15.6358 17.2491 15.627C17.176 15.6233 17.1042 15.6058 17.0384 15.5754C16.9726 15.545 16.9144 15.5023 16.8676 15.4499C16.7875 15.3843 16.7209 15.306 16.6711 15.2185C16.6212 15.1309 16.5889 15.0357 16.5757 14.9371C16.5481 14.7422 16.5826 14.5438 16.6735 14.3702C16.7266 14.2709 16.7935 14.1794 16.8718 14.099C16.959 14.0035 17.0668 13.9238 17.1821 13.8615C17.2696 13.8133 17.3653 13.7812 17.4648 13.7669C17.5644 13.7525 17.6654 13.756 17.7639 13.777C17.8645 13.8051 17.9562 13.8568 18.0307 13.9271C18.1052 13.9975 18.1604 14.0849 18.1919 14.1813C18.247 14.3641 18.2791 14.5536 18.2871 14.7446C18.2871 14.8538 18.2806 14.963 18.2676 15.0706C18.1828 15.5682 17.8957 15.9201 17.4059 16.1257C17.1473 16.2404 16.869 16.2986 16.5883 16.297C16.5311 16.297 16.4739 16.2941 16.4167 16.2882L16.422 16.985Z" fill="#336791" />
</svg>
