
<svg xmlns="http://www.w3.org/2000/svg" viewBox="0 0 24 24" fill="none" stroke="currentColor" stroke-width="2" stroke-linecap="round" stroke-linejoin="round">
  <path d="M12 3C8.59 3 6 4.43 6 7.5c0 2 1 5 1.5 6.5C8 15 9 15 9.5 16c.8 1.7 1.5 2 2.5 2s1.7-.3 2.5-2c.5-1 1.5-1 2-2s1.5-4.5 1.5-6.5c0-3.07-2.59-4.5-6-4.5z" opacity="0.1" fill="#336791"></path>
  <path d="M12 6.5v7" stroke="#336791"></path>
  <path d="M13.5 9.5a1.5 1.5 0 1 0 0-3 1.5 1.5 0 0 0 0 3z" stroke="#336791"></path>
  <path d="M9.5 9.5a1.5 1.5 0 1 1 0-3 1.5 1.5 0 0 1 0 3z" stroke="#336791"></path>
  <path d="M18.5,13c0,3.59-2.91,6.5-6.5,6.5S5.5,16.59,5.5,13c0-2.83,1.34-4.31,2.5-6.5C9,5.5,12,5.5,12,5.5s3,0,4,1c1.16,2.19,2.5,3.67,2.5,6.5Z" opacity="0.1" fill="#336791" stroke="#336791"></path>
</svg>
