
<svg xmlns="http://www.w3.org/2000/svg" viewBox="0 0 24 24" fill="none" stroke="currentColor" stroke-width="2" stroke-linecap="round" stroke-linejoin="round" class="lucide lucide-react">
  <circle cx="12" cy="11.999" r="2.5" fill="#61DAFB" stroke="#61DAFB"></circle>
  <circle cx="12" cy="12" r="10" opacity="0.1" fill="#61DAFB" stroke="#61DAFB"></circle>
  <path d="M2.5 12c0-2.839 2.282-5.5 6-5.5" stroke="#61DAFB" stroke-width="2"></path>
  <path d="M2.5 12c0 2.839 2.282 5.5 6 5.5" stroke="#61DAFB" stroke-width="2"></path>
  <path d="M21.5 12c0-2.839-2.282-5.5-6-5.5" stroke="#61DAFB" stroke-width="2"></path>
  <path d="M21.5 12c0 2.839-2.282 5.5-6 5.5" stroke="#61DAFB" stroke-width="2"></path>
  <path d="M12 6.5c-1.147 1.379-1.753 3.777-1.753 5.5" stroke="#61DAFB" stroke-width="2"></path>
  <path d="M12 6.5c1.147 1.379 1.753 3.777 1.753 5.5" stroke="#61DAFB" stroke-width="2"></path>
  <path d="M12 17.5c-1.147-1.379-1.753-3.777-1.753-5.5" stroke="#61DAFB" stroke-width="2"></path>
  <path d="M12 17.5c1.147-1.379 1.753-3.777 1.753-5.5" stroke="#61DAFB" stroke-width="2"></path>
</svg>
