
<svg xmlns="http://www.w3.org/2000/svg" viewBox="0 0 24 24" fill="none">
  <rect width="24" height="24" rx="6" fill="#111111" />
  <path d="M12.0001 13.7143C10.5859 13.7143 9.42871 12.5571 9.42871 11.1429C9.42871 9.72857 10.5859 8.57143 12.0001 8.57143C13.4144 8.57143 14.5716 9.72857 14.5716 11.1429C14.5716 12.5571 13.4144 13.7143 12.0001 13.7143Z" fill="#61DAFB" />
  <path d="M12.0001 15.3429C15.8001 15.3429 19.3715 13.8715 19.3715 11.1429C19.3715 8.41429 15.8001 6.94286 12.0001 6.94286C8.20014 6.94286 4.62871 8.41429 4.62871 11.1429C4.62871 13.8715 8.20014 15.3429 12.0001 15.3429Z" stroke="#61DAFB" stroke-width="1.2" />
  <path d="M9.97161 13.2429C11.8716 17.0429 14.5716 19.7143 16.0716 18.9715C17.5716 18.2286 17.0573 14.6857 15.1573 10.8857C13.2573 7.08572 10.5573 4.41429 9.05728 5.15715C7.55728 5.9 8.07161 9.44286 9.97161 13.2429Z" stroke="#61DAFB" stroke-width="1.2" />
  <path d="M9.97132 10.8857C8.07132 14.6857 7.55704 18.2286 9.05704 18.9714C10.557 19.7143 13.257 17.0429 15.157 13.2429C17.057 9.44286 17.5713 5.9 16.0713 5.15714C14.5713 4.41429 11.8713 7.08571 9.97132 10.8857Z" stroke="#61DAFB" stroke-width="1.2" />
</svg>
