
<svg xmlns="http://www.w3.org/2000/svg" viewBox="0 0 24 24" fill="none">
  <path d="M12 6C9.6 6 8.1 7.2 7.5 9.6C8.4 8.4 9.45 7.95 10.65 8.25C11.3207 8.42971 11.8041 8.91946 12.336 9.45974C13.2242 10.3586 14.2673 11.4 16.5 11.4C18.9 11.4 20.4 10.2 21 7.8C20.1 9 19.05 9.45 17.85 9.15C17.1793 8.97029 16.6959 8.48054 16.164 7.94026C15.2758 7.0414 14.2327 6 12 6ZM7.5 12C5.1 12 3.6 13.2 3 15.6C3.9 14.4 4.95 13.95 6.15 14.25C6.82071 14.4297 7.30409 14.9195 7.836 15.4597C8.72417 16.3586 9.76733 17.4 12 17.4C14.4 17.4 15.9 16.2 16.5 13.8C15.6 15 14.55 15.45 13.35 15.15C12.6793 14.9703 12.1959 14.4805 11.664 13.9403C10.7758 13.0414 9.73267 12 7.5 12Z" fill="#06B6D4" />
</svg>
